<mxfile host="app.diagrams.net" modified="2024-03-06T03:11:59.514Z" agent="Mozilla/5.0 (Macintosh; Intel Mac OS X 10_15_7) AppleWebKit/537.36 (KHTML, like Gecko) Chrome/122.0.0.0 Safari/537.36" etag="9nNoMK8JaFpc9bHs0tyc" version="24.0.2" type="github">
  <diagram id="yPxyJZ8AM_hMuL3Unpa9" name="simple gitflow">
    <mxGraphModel dx="3354" dy="1866" grid="1" gridSize="10" guides="1" tooltips="1" connect="1" arrows="1" fold="1" page="1" pageScale="1" pageWidth="1600" pageHeight="900" background="#FFFFFF" math="0" shadow="0">
      <root>
        <mxCell id="0" />
        <mxCell id="1" parent="0" />
        <mxCell id="K1_j1sxgQhOiwmQNUylR-1" value="" style="shape=image;html=1;verticalAlign=top;verticalLabelPosition=bottom;labelBackgroundColor=#ffffff;imageAspect=0;aspect=fixed;image=https://cdn4.iconfinder.com/data/icons/social-media-and-logos-11/32/Logo_Spotify-128.png" vertex="1" parent="1">
          <mxGeometry x="150" y="200" width="120" height="120" as="geometry" />
        </mxCell>
        <mxCell id="K1_j1sxgQhOiwmQNUylR-3" value="" style="shape=image;html=1;verticalAlign=top;verticalLabelPosition=bottom;labelBackgroundColor=#ffffff;imageAspect=0;aspect=fixed;image=https://cdn4.iconfinder.com/data/icons/social-media-2273/64/social_media_network_online_wikipedia-128.png" vertex="1" parent="1">
          <mxGeometry x="150" y="360" width="120" height="120" as="geometry" />
        </mxCell>
        <mxCell id="K1_j1sxgQhOiwmQNUylR-34" style="edgeStyle=orthogonalEdgeStyle;rounded=0;orthogonalLoop=1;jettySize=auto;html=1;exitX=1;exitY=0.5;exitDx=0;exitDy=0;" edge="1" parent="1">
          <mxGeometry relative="1" as="geometry">
            <mxPoint x="430" y="325" as="targetPoint" />
            <mxPoint x="310" y="325" as="sourcePoint" />
          </mxGeometry>
        </mxCell>
        <mxCell id="K1_j1sxgQhOiwmQNUylR-4" value="" style="rounded=1;whiteSpace=wrap;html=1;fillColor=none;" vertex="1" parent="1">
          <mxGeometry x="110" y="180" width="200" height="330" as="geometry" />
        </mxCell>
        <mxCell id="K1_j1sxgQhOiwmQNUylR-5" value="" style="outlineConnect=0;dashed=0;verticalLabelPosition=bottom;verticalAlign=top;align=center;html=1;shape=mxgraph.aws3.s3;fillColor=#E05243;gradientColor=none;" vertex="1" parent="1">
          <mxGeometry x="440" y="280" width="120" height="120" as="geometry" />
        </mxCell>
        <mxCell id="K1_j1sxgQhOiwmQNUylR-8" value="" style="shape=image;html=1;verticalAlign=top;verticalLabelPosition=bottom;labelBackgroundColor=#ffffff;imageAspect=0;aspect=fixed;image=https://cdn2.iconfinder.com/data/icons/cornavirus-covid-19/64/_sanitize_hand_wash_soap_clean_hygiene-128.png" vertex="1" parent="1">
          <mxGeometry x="670" y="272" width="128" height="128" as="geometry" />
        </mxCell>
        <mxCell id="K1_j1sxgQhOiwmQNUylR-9" value="" style="shape=mxgraph.signs.nature.snowflake;html=1;pointerEvents=1;fillColor=#000000;strokeColor=none;verticalLabelPosition=bottom;verticalAlign=top;align=center;" vertex="1" parent="1">
          <mxGeometry x="870" y="276" width="120" height="120" as="geometry" />
        </mxCell>
        <mxCell id="K1_j1sxgQhOiwmQNUylR-41" style="edgeStyle=orthogonalEdgeStyle;rounded=0;sketch=1;hachureGap=4;jiggle=2;curveFitting=1;orthogonalLoop=1;jettySize=auto;html=1;entryX=-0.005;entryY=0.312;entryDx=0;entryDy=0;entryPerimeter=0;" edge="1" parent="1" source="K1_j1sxgQhOiwmQNUylR-10" target="K1_j1sxgQhOiwmQNUylR-36">
          <mxGeometry relative="1" as="geometry">
            <mxPoint x="1240" y="345" as="targetPoint" />
          </mxGeometry>
        </mxCell>
        <mxCell id="K1_j1sxgQhOiwmQNUylR-10" value="" style="rounded=1;whiteSpace=wrap;html=1;fillColor=none;" vertex="1" parent="1">
          <mxGeometry x="650" y="240" width="380" height="210" as="geometry" />
        </mxCell>
        <mxCell id="K1_j1sxgQhOiwmQNUylR-13" value="Spotity API" style="text;html=1;align=center;verticalAlign=middle;whiteSpace=wrap;rounded=0;" vertex="1" parent="1">
          <mxGeometry x="160" y="320" width="90" height="30" as="geometry" />
        </mxCell>
        <mxCell id="K1_j1sxgQhOiwmQNUylR-14" value="MediaWiki API" style="text;html=1;align=center;verticalAlign=middle;whiteSpace=wrap;rounded=0;" vertex="1" parent="1">
          <mxGeometry x="160" y="450" width="90" height="30" as="geometry" />
        </mxCell>
        <mxCell id="K1_j1sxgQhOiwmQNUylR-15" value="AWS S3" style="text;html=1;align=center;verticalAlign=middle;whiteSpace=wrap;rounded=0;" vertex="1" parent="1">
          <mxGeometry x="455" y="400" width="90" height="30" as="geometry" />
        </mxCell>
        <mxCell id="K1_j1sxgQhOiwmQNUylR-16" value="Processing with Python" style="text;html=1;align=center;verticalAlign=middle;whiteSpace=wrap;rounded=0;" vertex="1" parent="1">
          <mxGeometry x="680" y="400" width="90" height="30" as="geometry" />
        </mxCell>
        <mxCell id="K1_j1sxgQhOiwmQNUylR-17" value="Snowflake" style="text;html=1;align=center;verticalAlign=middle;whiteSpace=wrap;rounded=0;" vertex="1" parent="1">
          <mxGeometry x="900" y="405" width="90" height="30" as="geometry" />
        </mxCell>
        <mxCell id="K1_j1sxgQhOiwmQNUylR-19" value="Step 1: Extract Data" style="text;strokeColor=none;fillColor=none;html=1;fontSize=24;fontStyle=1;verticalAlign=middle;align=center;" vertex="1" parent="1">
          <mxGeometry x="160" y="505" width="100" height="40" as="geometry" />
        </mxCell>
        <mxCell id="K1_j1sxgQhOiwmQNUylR-27" value="Step 2: Load raw data&lt;div&gt;into S3&lt;/div&gt;&lt;div&gt;&lt;br&gt;&lt;/div&gt;" style="text;strokeColor=none;fillColor=none;html=1;fontSize=24;fontStyle=1;verticalAlign=middle;align=center;" vertex="1" parent="1">
          <mxGeometry x="485" y="480" width="50" height="25" as="geometry" />
        </mxCell>
        <mxCell id="K1_j1sxgQhOiwmQNUylR-29" style="edgeStyle=orthogonalEdgeStyle;rounded=0;orthogonalLoop=1;jettySize=auto;html=1;entryX=-0.008;entryY=0.471;entryDx=0;entryDy=0;entryPerimeter=0;" edge="1" parent="1" source="K1_j1sxgQhOiwmQNUylR-5" target="K1_j1sxgQhOiwmQNUylR-10">
          <mxGeometry relative="1" as="geometry" />
        </mxCell>
        <mxCell id="K1_j1sxgQhOiwmQNUylR-35" value="Step 3: Transform data and&amp;nbsp;&lt;div&gt;store into Snowflake&lt;/div&gt;" style="text;strokeColor=none;fillColor=none;html=1;fontSize=24;fontStyle=1;verticalAlign=middle;align=center;" vertex="1" parent="1">
          <mxGeometry x="800" y="480" width="100" height="40" as="geometry" />
        </mxCell>
        <mxCell id="K1_j1sxgQhOiwmQNUylR-36" value="" style="verticalLabelPosition=bottom;html=1;verticalAlign=top;align=center;strokeColor=none;fillColor=#00BEF2;shape=mxgraph.azure.website_generic;pointerEvents=1;" vertex="1" parent="1">
          <mxGeometry x="1220" y="290" width="200" height="170" as="geometry" />
        </mxCell>
        <mxCell id="K1_j1sxgQhOiwmQNUylR-37" value="Step 4: Create app using data&amp;nbsp;" style="text;strokeColor=none;fillColor=none;html=1;fontSize=24;fontStyle=1;verticalAlign=middle;align=center;" vertex="1" parent="1">
          <mxGeometry x="1270" y="480" width="100" height="40" as="geometry" />
        </mxCell>
        <mxCell id="K1_j1sxgQhOiwmQNUylR-39" value="Berlioz - A Classical Music Recommendation Engine" style="text;strokeColor=none;fillColor=none;html=1;fontSize=24;fontStyle=1;verticalAlign=middle;align=center;" vertex="1" parent="1">
          <mxGeometry x="750" y="20" width="100" height="40" as="geometry" />
        </mxCell>
      </root>
    </mxGraphModel>
  </diagram>
</mxfile>
